<svg width="43" height="42" viewBox="0 0 43 42" fill="none" xmlns="http://www.w3.org/2000/svg">
<path d="M42.975 0H0V41.5275H42.975V0Z" fill="#0052CC"/>
<path d="M34.2764 17.1059C34.2764 15.7898 34.087 14.5905 33.7102 13.5042C33.3333 12.4198 32.785 11.4907 32.0652 10.7167C31.3454 9.94279 30.478 9.33814 29.4611 8.89876C28.4442 8.45938 27.3097 8.2417 26.0535 8.2417C24.8213 8.2417 23.6847 8.45534 22.6459 8.88263C21.7486 9.25147 20.969 9.74124 20.301 10.3499L19.2981 15.2677L17.8545 14.7014C17.7289 15.298 17.6631 15.9147 17.6631 16.5536C17.6631 17.8698 17.8864 19.0408 18.3311 20.0687C18.7757 21.0966 19.3818 21.9733 20.1475 22.7009C20.9132 23.4285 21.8025 23.9828 22.8194 24.3637C23.8363 24.7447 24.915 24.9341 26.0575 24.9341C27.6108 24.9341 29.0544 24.5874 30.3903 23.8961C31.7262 23.2028 32.7371 22.1769 33.421 20.8144L30.1331 19.1879C29.5847 20.0647 28.9866 20.6713 28.3345 21.0059C27.6845 21.3405 27.0046 21.5078 26.2968 21.5078C25.2918 21.5078 24.4305 21.155 23.7106 20.4516C22.9908 19.7482 22.5861 18.8412 22.4944 17.7327H34.2784V17.1059H34.2764ZM22.5263 14.8908C22.6858 13.9214 23.0746 13.1595 23.6907 12.6053C24.3068 12.051 25.0845 11.7749 26.0196 11.7749C26.8192 11.7749 27.539 12.0167 28.177 12.5025C28.8171 12.9882 29.2278 13.7843 29.4093 14.8908H22.5263Z" fill="white"/>
<path d="M17.621 12.7444C17.1983 12.6517 16.8274 12.6053 16.5084 12.6053C15.4576 12.6053 14.6979 12.9742 14.2313 13.7139C13.7628 14.4536 13.5295 15.4109 13.5295 16.588V24.5512H8.7002V8.62269H13.2224L13.3261 10.5959H13.3939C14.0339 9.78765 14.7119 9.19308 15.4317 8.81215C16.1515 8.43122 16.8753 8.24176 17.607 8.24176C18.0178 8.24176 18.4006 8.28812 18.7555 8.38083C19.1085 8.47354 19.4454 8.60052 19.7665 8.76176L18.8752 13.1253C18.4604 12.9641 18.0437 12.8371 17.621 12.7444Z" fill="white"/>
<path d="M34.4468 33.2866V28.8867L8.53179 28.8867V33.2866L34.4468 33.2866Z" fill="white"/>
</svg>
