<svg width="106" height="13" viewBox="0 0 106 13" fill="none" xmlns="http://www.w3.org/2000/svg">
<path d="M9.312 2.112H5.52V12H3.952V2.112H0.16V0.655999H9.312V2.112ZM23.1648 12H21.6128V3.168L17.7408 12H16.3008L12.4608 3.168V12H10.9088V0.655999H13.0368L17.0368 9.888L21.0688 0.655999H23.1648V12ZM31.6174 10.608H33.9374C35.0467 10.608 35.964 10.24 36.6894 9.504C37.4254 8.768 37.7934 7.71733 37.7934 6.352C37.7934 4.976 37.4307 3.91467 36.7054 3.168C35.9907 2.42133 35.0787 2.048 33.9694 2.048H31.6174V10.608ZM33.9854 12H30.0494V0.655999H34.0174C35.5427 0.655999 36.8227 1.16267 37.8574 2.176C38.892 3.17867 39.4094 4.57067 39.4094 6.352C39.4094 8.12267 38.8867 9.50933 37.8414 10.512C36.796 11.504 35.5107 12 33.9854 12ZM40.925 9.936C40.925 9.27467 41.1383 8.74667 41.565 8.352C41.9917 7.94667 42.557 7.696 43.261 7.6L45.341 7.296C45.7357 7.24267 45.933 7.05067 45.933 6.72C45.933 6.31467 45.7943 5.984 45.517 5.728C45.2397 5.472 44.8237 5.344 44.269 5.344C43.757 5.344 43.3517 5.488 43.053 5.776C42.7543 6.05333 42.5783 6.42667 42.525 6.896L41.085 6.56C41.1597 5.824 41.4957 5.22667 42.093 4.768C42.6903 4.29867 43.405 4.064 44.237 4.064C45.325 4.064 46.1303 4.33067 46.653 4.864C47.1757 5.38667 47.437 6.05867 47.437 6.88V10.736C47.437 11.1947 47.469 11.616 47.533 12H46.061C46.0077 11.68 45.981 11.3333 45.981 10.96C45.7677 11.3013 45.453 11.6 45.037 11.856C44.6317 12.112 44.1197 12.24 43.501 12.24C42.7437 12.24 42.125 12.016 41.645 11.568C41.165 11.1093 40.925 10.5653 40.925 9.936ZM43.709 10.976C44.381 10.976 44.9197 10.7947 45.325 10.432C45.7303 10.0693 45.933 9.49333 45.933 8.704V8.352L43.581 8.704C43.2397 8.75733 42.9677 8.88 42.765 9.072C42.5623 9.264 42.461 9.52533 42.461 9.856C42.461 10.1547 42.573 10.416 42.797 10.64C43.0317 10.864 43.3357 10.976 43.709 10.976ZM49.06 10L50.42 9.52C50.4733 9.936 50.6547 10.2827 50.964 10.56C51.2733 10.8267 51.6893 10.96 52.212 10.96C52.6173 10.96 52.9373 10.864 53.172 10.672C53.4067 10.4693 53.524 10.224 53.524 9.936C53.524 9.424 53.1933 9.09333 52.532 8.944L51.22 8.656C50.6227 8.528 50.1533 8.272 49.812 7.888C49.4707 7.504 49.3 7.04 49.3 6.496C49.3 5.83467 49.5667 5.264 50.1 4.784C50.644 4.304 51.2893 4.064 52.036 4.064C52.5267 4.064 52.964 4.13867 53.348 4.288C53.732 4.42667 54.0307 4.61333 54.244 4.848C54.4573 5.08267 54.6173 5.30133 54.724 5.504C54.8307 5.70667 54.9107 5.91467 54.964 6.128L53.636 6.624C53.6147 6.496 53.5773 6.37333 53.524 6.256C53.4707 6.128 53.3853 5.98933 53.268 5.84C53.1613 5.69067 53.0013 5.57333 52.788 5.488C52.5747 5.392 52.324 5.344 52.036 5.344C51.6627 5.344 51.3533 5.44533 51.108 5.648C50.8733 5.85067 50.756 6.09067 50.756 6.368C50.756 6.85867 51.0493 7.168 51.636 7.296L52.884 7.568C53.5667 7.71733 54.0893 7.99467 54.452 8.4C54.8253 8.79467 55.012 9.28 55.012 9.856C55.012 10.464 54.7613 11.0133 54.26 11.504C53.7693 11.9947 53.0813 12.24 52.196 12.24C51.2467 12.24 50.5053 12.0053 49.972 11.536C49.4387 11.056 49.1347 10.544 49.06 10ZM58.5184 7.472V12H57.0144V0.415999H58.5184V5.2C59.0304 4.45333 59.809 4.08 60.8544 4.08C61.7397 4.08 62.417 4.36267 62.8864 4.928C63.3664 5.49333 63.6064 6.224 63.6064 7.12V12H62.1024V7.376C62.1024 6.08533 61.505 5.44 60.3104 5.44C59.7557 5.44 59.3237 5.632 59.0144 6.016C58.705 6.38933 58.5397 6.87467 58.5184 7.472ZM67.4868 12H65.9988V0.415999H67.4868V5.392C67.6894 5.01867 68.0094 4.70933 68.4468 4.464C68.8948 4.208 69.4228 4.08 70.0308 4.08C71.1508 4.08 72.0201 4.45867 72.6388 5.216C73.2574 5.97333 73.5668 6.93867 73.5668 8.112C73.5668 9.296 73.2468 10.2773 72.6068 11.056C71.9668 11.824 71.0921 12.208 69.9828 12.208C68.8308 12.208 67.9988 11.7653 67.4868 10.88V12ZM71.4068 10.112C71.8228 9.61067 72.0308 8.944 72.0308 8.112C72.0308 7.28 71.8228 6.624 71.4068 6.144C71.0014 5.65333 70.4521 5.408 69.7588 5.408C69.0868 5.408 68.5374 5.65333 68.1108 6.144C67.6841 6.63467 67.4708 7.29067 67.4708 8.112C67.4708 8.93333 67.6841 9.6 68.1108 10.112C68.5374 10.6133 69.0868 10.864 69.7588 10.864C70.4414 10.864 70.9908 10.6133 71.4068 10.112ZM77.0671 10.176C77.5365 10.656 78.1071 10.896 78.7791 10.896C79.4511 10.896 80.0165 10.656 80.4751 10.176C80.9445 9.68533 81.1791 9.008 81.1791 8.144C81.1791 7.29067 80.9445 6.624 80.4751 6.144C80.0165 5.65333 79.4511 5.408 78.7791 5.408C78.1071 5.408 77.5365 5.65333 77.0671 6.144C76.6085 6.624 76.3791 7.29067 76.3791 8.144C76.3791 9.008 76.6085 9.68533 77.0671 10.176ZM75.9471 5.232C76.6938 4.45333 77.6378 4.064 78.7791 4.064C79.9205 4.064 80.8591 4.45333 81.5951 5.232C82.3418 6 82.7151 6.97067 82.7151 8.144C82.7151 9.328 82.3471 10.3093 81.6111 11.088C80.8751 11.856 79.9311 12.24 78.7791 12.24C77.6271 12.24 76.6831 11.856 75.9471 11.088C75.2111 10.3093 74.8431 9.328 74.8431 8.144C74.8431 6.97067 75.2111 6 75.9471 5.232ZM84.1594 9.936C84.1594 9.27467 84.3727 8.74667 84.7994 8.352C85.226 7.94667 85.7914 7.696 86.4954 7.6L88.5754 7.296C88.97 7.24267 89.1674 7.05067 89.1674 6.72C89.1674 6.31467 89.0287 5.984 88.7514 5.728C88.474 5.472 88.058 5.344 87.5034 5.344C86.9914 5.344 86.586 5.488 86.2874 5.776C85.9887 6.05333 85.8127 6.42667 85.7594 6.896L84.3194 6.56C84.394 5.824 84.73 5.22667 85.3274 4.768C85.9247 4.29867 86.6394 4.064 87.4714 4.064C88.5594 4.064 89.3647 4.33067 89.8874 4.864C90.41 5.38667 90.6714 6.05867 90.6714 6.88V10.736C90.6714 11.1947 90.7034 11.616 90.7674 12H89.2954C89.242 11.68 89.2154 11.3333 89.2154 10.96C89.002 11.3013 88.6874 11.6 88.2714 11.856C87.866 12.112 87.354 12.24 86.7354 12.24C85.978 12.24 85.3594 12.016 84.8794 11.568C84.3994 11.1093 84.1594 10.5653 84.1594 9.936ZM86.9434 10.976C87.6154 10.976 88.154 10.7947 88.5594 10.432C88.9647 10.0693 89.1674 9.49333 89.1674 8.704V8.352L86.8154 8.704C86.474 8.75733 86.202 8.88 85.9994 9.072C85.7967 9.264 85.6954 9.52533 85.6954 9.856C85.6954 10.1547 85.8074 10.416 86.0314 10.64C86.266 10.864 86.57 10.976 86.9434 10.976ZM97.2864 4.224V5.824C97.0624 5.792 96.8437 5.776 96.6304 5.776C95.2224 5.776 94.5184 6.56533 94.5184 8.144V12H93.0144V4.304H94.4864V5.648C94.9557 4.66667 95.7237 4.176 96.7904 4.176C96.961 4.176 97.1264 4.192 97.2864 4.224ZM99.7073 8.128C99.7073 8.93867 99.9046 9.6 100.299 10.112C100.705 10.624 101.259 10.88 101.963 10.88C102.635 10.88 103.174 10.6187 103.579 10.096C103.985 9.57333 104.187 8.90667 104.187 8.096C104.187 7.296 103.99 6.65067 103.595 6.16C103.201 5.66933 102.662 5.424 101.979 5.424C101.297 5.424 100.747 5.67467 100.331 6.176C99.9153 6.67733 99.7073 7.328 99.7073 8.128ZM104.203 10.96V10.832C104.001 11.2267 103.691 11.5573 103.275 11.824C102.87 12.08 102.385 12.208 101.819 12.208C100.721 12.208 99.8353 11.824 99.1633 11.056C98.5019 10.2773 98.1713 9.30133 98.1713 8.128C98.1713 7.008 98.5126 6.05867 99.1953 5.28C99.8779 4.49067 100.753 4.096 101.819 4.096C102.449 4.096 102.961 4.224 103.355 4.48C103.75 4.72533 104.022 5.02933 104.171 5.392V0.415999H105.659V10.576C105.659 11.0987 105.686 11.5733 105.739 12H104.283C104.23 11.7013 104.203 11.3547 104.203 10.96Z" fill="#091E42"/>
</svg>
