<svg width="246" height="42" viewBox="0 0 246 42" fill="none" xmlns="http://www.w3.org/2000/svg">
<path d="M171.013 27.3708C171.836 26.9475 172.596 26.1796 173.29 25.0691L177.455 27.1309C176.588 28.8562 175.307 30.1562 173.615 31.0329C171.922 31.9097 170.093 32.3491 168.127 32.3491C166.682 32.3491 165.314 32.1072 164.028 31.6255C162.742 31.1438 161.613 30.4424 160.644 29.5213C159.675 28.6002 158.909 27.4897 158.345 26.1877C157.781 24.8877 157.5 23.4022 157.5 21.7374C157.5 20.2762 157.761 18.9016 158.281 17.6157C158.802 16.3298 159.526 15.2112 160.451 14.2619C161.376 13.3126 162.497 12.5669 163.812 12.0247C165.128 11.4846 166.568 11.2145 168.129 11.2145C169.72 11.2145 171.158 11.4926 172.446 12.0469C173.732 12.6032 174.833 13.3691 175.744 14.3486C176.655 15.3281 177.349 16.5052 177.826 17.8798C178.302 19.2543 178.542 20.774 178.542 22.4408V23.2309H163.617C163.733 24.6337 164.247 25.7826 165.156 26.6734C166.068 27.5643 167.158 28.0117 168.432 28.0117C169.33 28.0057 170.189 27.794 171.013 27.3708ZM165.134 16.735C164.353 17.4363 163.862 18.4018 163.659 19.6292H172.378C172.147 18.2264 171.627 17.2167 170.817 16.6039C170.008 15.9892 169.096 15.6828 168.083 15.6828C166.899 15.6828 165.916 16.0336 165.134 16.735Z" fill="#0052CC"/>
<path d="M180.361 17.3053C180.853 15.9892 181.511 14.8787 182.335 13.9717C183.158 13.0647 184.127 12.3774 185.242 11.9098C186.356 11.4422 187.549 11.2084 188.821 11.2084C190.035 11.2084 191.164 11.4503 192.205 11.932C193.245 12.4137 194.143 13.0647 194.894 13.883L194.982 13.8387V0.419434H201.056V31.8613H195.373L195.2 29.6684L195.112 29.6241C194.446 30.3557 193.578 30.9906 192.51 31.5308C191.439 32.0709 190.255 32.341 188.953 32.341C187.708 32.341 186.524 32.1153 185.395 31.6618C184.267 31.2083 183.278 30.5291 182.424 29.6221C181.571 28.7151 180.891 27.6126 180.385 26.3106C179.878 25.0106 179.625 23.497 179.625 21.7717C179.623 20.1129 179.868 18.6215 180.361 17.3053ZM187.062 25.9881C187.916 27.0402 189.036 27.5663 190.424 27.5663C191.812 27.5663 192.918 27.0322 193.742 25.966C194.565 24.8998 194.978 23.4889 194.978 21.7334C194.978 19.9799 194.551 18.5832 193.698 17.5452C192.845 16.5072 191.754 15.9892 190.422 15.9892C188.947 15.9892 187.804 16.5233 186.995 17.5895C186.185 18.6557 185.78 20.0384 185.78 21.7334C185.784 23.5171 186.211 24.936 187.062 25.9881Z" fill="#0052CC"/>
<path d="M215.175 36.4042C215.797 36.0978 216.296 35.6726 216.672 35.1324C217.049 34.5923 217.316 33.9634 217.476 33.2459C217.635 32.5304 217.715 31.7625 217.715 30.9442V29.9365C217.687 29.9365 217.665 29.9284 217.649 29.9143C217.635 29.9002 217.614 29.8921 217.584 29.8921C216.948 30.5351 216.124 31.1054 215.111 31.6033C214.098 32.1011 212.972 32.349 211.727 32.349C210.455 32.349 209.255 32.1233 208.126 31.6698C206.998 31.2163 206.015 30.5512 205.177 29.6744C204.338 28.7977 203.666 27.7013 203.16 26.3851C202.653 25.069 202.4 23.5493 202.4 21.824C202.4 20.1572 202.639 18.6738 203.116 17.3738C203.592 16.0738 204.244 14.9612 205.068 14.0402C205.891 13.1191 206.846 12.4177 207.931 11.936C209.016 11.4543 210.164 11.2124 211.381 11.2124C212.798 11.2124 214.034 11.4744 215.089 12.0025C216.144 12.5285 217.077 13.2299 217.887 14.1067H217.974L218.104 11.6941H223.787V29.1464C223.787 30.3738 223.759 31.3392 223.699 32.0406C223.641 32.742 223.512 33.4596 223.308 34.1892C222.7 36.4405 221.53 38.2161 219.795 39.5182C218.06 40.8202 215.877 41.4692 213.245 41.4692C212.031 41.4692 210.932 41.3523 209.949 41.1185C208.966 40.8847 208.077 40.5844 207.281 40.2196C206.485 39.8548 205.784 39.4375 205.177 38.9699C204.569 38.5024 204.049 38.0489 203.616 37.6115L206.565 33.9715C207.433 34.9067 208.445 35.6242 209.602 36.12C210.758 36.6179 211.843 36.8658 212.856 36.8658C213.779 36.8637 214.553 36.7106 215.175 36.4042ZM209.795 26.0103C210.649 27.0482 211.769 27.5662 213.157 27.5662C214.545 27.5662 215.651 27.0321 216.477 25.9659C217.302 24.8997 217.713 23.4888 217.713 21.7333C217.713 19.9799 217.287 18.5831 216.433 17.5451C215.58 16.5071 214.489 15.9892 213.157 15.9892C211.682 15.9892 210.539 16.5293 209.73 17.6116C208.92 18.694 208.515 20.0827 208.515 21.7777C208.515 23.5614 208.942 24.9723 209.795 26.0103Z" fill="#0052CC"/>
<path d="M238.471 27.3707C239.295 26.9474 240.054 26.1795 240.748 25.0689L244.914 27.1308C244.046 28.8561 242.766 30.1561 241.073 31.0328C239.38 31.9096 237.552 32.3489 235.586 32.3489C234.14 32.3489 232.773 32.1071 231.486 31.6254C230.2 31.1437 229.072 30.4423 228.103 29.5212C227.134 28.6001 226.368 27.4896 225.804 26.1875C225.24 24.8875 224.958 23.4021 224.958 21.7373C224.958 20.2761 225.218 18.9015 225.74 17.6156C226.26 16.3297 226.984 15.2111 227.909 14.2618C228.835 13.3125 229.955 12.5668 231.271 12.0246C232.587 11.4844 234.027 11.2144 235.588 11.2144C237.179 11.2144 238.617 11.4925 239.905 12.0468C241.191 12.603 242.292 13.3689 243.203 14.3485C244.114 15.328 244.808 16.5051 245.284 17.8796C245.761 19.2542 246 20.7739 246 22.4407V23.2308H231.076C231.191 24.6336 231.706 25.7824 232.615 26.6733C233.526 27.5641 234.619 28.0116 235.891 28.0116C236.786 28.0055 237.646 27.7939 238.471 27.3707ZM232.593 16.7348C231.811 17.4362 231.321 18.4016 231.118 19.6291H239.837C239.606 18.2263 239.085 17.2165 238.276 16.6038C237.466 15.9891 236.555 15.6827 235.542 15.6827C234.356 15.6827 233.373 16.0334 232.593 16.7348Z" fill="#0052CC"/>
<path d="M49.3699 28.2739C49.005 29.0539 48.4607 29.7452 47.7329 30.3478C47.0051 30.9505 46.1019 31.4362 45.0251 31.805C43.9484 32.1739 42.7102 32.3573 41.3145 32.3573C40.2956 32.3573 39.3425 32.2545 38.4552 32.0489C37.5679 31.8433 36.7524 31.5773 36.0106 31.2548C35.2689 30.9303 34.6129 30.5715 34.0466 30.1725C33.4784 29.7754 33.0058 29.3703 32.627 28.9591L35.552 25.2949C36.3676 26.1475 37.2768 26.8187 38.2817 27.3024C39.2867 27.7881 40.2976 28.03 41.3165 28.03C42.1599 28.03 42.8079 27.8526 43.2585 27.4999C43.7092 27.1472 43.9345 26.734 43.9345 26.2644C43.9345 25.6456 43.5855 25.176 42.8857 24.8515C42.5647 24.6742 42.2097 24.527 41.8149 24.4101C41.4221 24.2932 41.0214 24.1602 40.6146 24.0131L39.2607 23.616C38.6486 23.4387 38.1322 23.2633 37.7114 23.086C37.2887 22.9086 36.89 22.7171 36.5111 22.5115C35.4045 21.923 34.6049 21.2539 34.1104 20.5041C33.6159 19.7543 33.3687 18.7607 33.3687 17.5252C33.3687 16.7311 33.5501 15.9511 33.915 15.1852C34.2799 14.4193 34.8103 13.728 35.5082 13.1112C36.206 12.4945 37.0654 12.0007 38.0843 11.6318C39.1032 11.263 40.2816 11.0796 41.6215 11.0796C42.6703 11.0796 43.6015 11.1824 44.417 11.388C45.2325 11.5935 45.9523 11.8435 46.5784 12.1377C47.2045 12.432 47.7508 12.7625 48.2154 13.1314C48.682 13.5002 49.0888 13.8308 49.4377 14.125L46.5126 17.6118C45.9304 17.0233 45.1887 16.5094 44.2854 16.068C43.3822 15.6266 42.467 15.4069 41.5338 15.4069C40.8359 15.4069 40.2537 15.5621 39.7871 15.8704C39.3205 16.1788 39.0893 16.5839 39.0893 17.0838C39.0893 17.4667 39.2428 17.7832 39.5479 18.0331C39.8529 18.283 40.2098 18.4825 40.6186 18.6297C40.9974 18.7768 41.3823 18.9159 41.7751 19.0489C42.1679 19.1819 42.6125 19.321 43.107 19.4681L44.5047 19.9095C45.2624 20.1453 46.0181 20.4618 46.7758 20.8588C47.5335 21.2559 48.1875 21.7638 48.7398 22.3805C49.5254 23.2633 49.9182 24.4404 49.9182 25.9117C49.9162 26.7058 49.7348 27.4939 49.3699 28.2739Z" fill="#0052CC"/>
<path d="M50.7906 17.4384C51.315 16.1444 52.0567 15.0258 53.0178 14.0846C53.9789 13.1433 55.1354 12.4077 56.4892 11.8776C57.8431 11.3475 59.3346 11.0835 60.9656 11.0835C62.5966 11.0835 64.0801 11.3475 65.42 11.8776C66.7599 12.4077 67.9084 13.1433 68.8695 14.0846C69.8306 15.0258 70.5723 16.1444 71.0967 17.4384C71.6211 18.7323 71.8823 20.1452 71.8823 21.675C71.8823 23.2048 71.6211 24.6257 71.0967 25.9338C70.5723 27.2438 69.8306 28.3685 68.8695 29.3097C67.9084 30.251 66.7599 30.9947 65.42 31.5389C64.0801 32.0831 62.5966 32.3551 60.9656 32.3551C59.3346 32.3551 57.8431 32.0831 56.4892 31.5389C55.1354 30.9947 53.9789 30.251 53.0178 29.3097C52.0567 28.3685 51.315 27.2418 50.7906 25.9338C50.2662 24.6237 50.005 23.2048 50.005 21.675C50.005 20.1452 50.2662 18.7323 50.7906 17.4384ZM64.4569 25.8894C65.3004 24.7849 65.7231 23.3801 65.7231 21.675C65.7231 19.9679 65.3004 18.5772 64.4569 17.5049C63.6135 16.4306 62.4491 15.8945 60.9636 15.8945C59.4781 15.8945 58.3077 16.4306 57.4483 17.5049C56.5889 18.5792 56.1602 19.9699 56.1602 21.675C56.1602 23.3821 56.5889 24.7869 57.4483 25.8894C58.3077 26.9919 59.4781 27.5441 60.9636 27.5441C62.4491 27.5462 63.6135 26.9939 64.4569 25.8894Z" fill="#0052CC"/>
<path d="M75.4171 30.0838C73.7582 28.5682 72.9287 26.3249 72.9287 23.352V11.5674H79.0859V23.6161C79.0859 24.9403 79.385 25.9258 79.9812 26.5728C80.5774 27.2198 81.4009 27.5443 82.4477 27.5443C83.4367 27.5443 84.2602 27.242 84.9142 26.6393C85.5682 26.0367 85.8972 25.0289 85.8972 23.6161V11.5674H92.0544V23.3077C92.0544 24.8959 91.7852 26.2644 91.2469 27.4133C90.7085 28.5601 90.0027 29.5034 89.1293 30.239C88.256 30.9747 87.259 31.5108 86.1384 31.8494C85.0178 32.188 83.8753 32.3573 82.7109 32.3573C79.5067 32.3573 77.0761 31.5995 75.4171 30.0838Z" fill="#0052CC"/>
<path d="M104.65 16.8197C104.112 16.7028 103.639 16.6423 103.23 16.6423C101.891 16.6423 100.923 17.1139 100.327 18.0552C99.7311 18.9964 99.432 20.2178 99.432 21.7194V31.8715H93.2748V11.5673H99.0392L99.1708 14.0826H99.2585C100.074 13.0527 100.939 12.2949 101.857 11.8091C102.774 11.3234 103.697 11.0815 104.63 11.0815C105.155 11.0815 105.641 11.14 106.094 11.2589C106.544 11.3758 106.975 11.5391 107.382 11.7446L106.247 17.3054C105.721 17.0998 105.188 16.9386 104.65 16.8197Z" fill="#0052CC"/>
<path d="M112.925 24.2347C113.186 24.9704 113.529 25.5811 113.952 26.0668C114.375 26.5526 114.869 26.9194 115.437 27.1693C116.006 27.4192 116.594 27.5442 117.206 27.5442C118.195 27.5442 119.003 27.3305 119.629 26.9033C120.255 26.476 120.903 25.7343 121.573 24.6741L125.852 27.1895C124.863 28.8664 123.603 30.1462 122.075 31.029C120.548 31.9118 118.851 32.3532 116.989 32.3532C115.591 32.3532 114.253 32.1033 112.971 31.6034C111.691 31.1036 110.562 30.3901 109.587 29.4629C108.612 28.5358 107.833 27.4172 107.25 26.1092C106.668 24.7991 106.377 23.3217 106.377 21.673C106.377 20.0243 106.668 18.547 107.25 17.2369C107.833 15.9268 108.612 14.8163 109.587 13.9053C110.562 12.9922 111.691 12.2949 112.971 11.8091C114.251 11.3234 115.591 11.0815 116.989 11.0815C118.851 11.0815 120.548 11.5229 122.075 12.4057C123.603 13.2885 124.863 14.5684 125.852 16.2453L121.573 18.7606C121.194 18.1136 120.664 17.4727 119.98 16.8398C119.296 16.207 118.371 15.8905 117.206 15.8905C115.808 15.8905 114.68 16.4267 113.822 17.5009C112.963 18.5752 112.534 19.9659 112.534 21.671C112.532 22.6465 112.662 23.4991 112.925 24.2347Z" fill="#0052CC"/>
<path d="M139.016 27.3466C139.845 26.9193 140.609 26.1474 141.309 25.0288L145.5 27.1027C144.627 28.8381 143.339 30.1482 141.636 31.031C139.933 31.9138 138.093 32.3551 136.113 32.3551C134.657 32.3551 133.281 32.1133 131.987 31.6276C130.691 31.1418 129.557 30.4364 128.582 29.5093C127.606 28.5821 126.835 27.4635 126.267 26.1555C125.698 24.8454 125.415 23.3519 125.415 21.675C125.415 20.2037 125.676 18.821 126.201 17.5271C126.725 16.2331 127.453 15.1065 128.384 14.1511C129.315 13.1958 130.444 12.444 131.768 11.8998C133.092 11.3556 134.541 11.0835 136.113 11.0835C137.714 11.0835 139.161 11.3637 140.457 11.922C141.753 12.4802 142.858 13.2542 143.775 14.2398C144.692 15.2254 145.39 16.4105 145.871 17.7931C146.351 19.1758 146.591 20.7055 146.591 22.3824V23.1765H131.57C131.686 24.5894 132.204 25.7443 133.12 26.6412C134.035 27.5381 135.136 27.9876 136.416 27.9876C137.319 27.9876 138.186 27.7739 139.016 27.3466ZM133.098 16.6443C132.312 17.3497 131.818 18.3212 131.612 19.5567H140.389C140.156 18.1438 139.632 17.13 138.818 16.5113C138.003 15.8925 137.086 15.5841 136.067 15.5841C134.874 15.5841 133.885 15.9368 133.098 16.6443Z" fill="#0052CC"/>
<path d="M32.8453 22.3765C32.8453 20.6996 32.606 19.1698 32.1255 17.7892C31.6449 16.4066 30.9471 15.2235 30.0299 14.2379C29.1127 13.2523 28.008 12.4804 26.714 11.9221C25.4199 11.3638 23.9723 11.0836 22.3712 11.0836C20.8 11.0836 19.3524 11.3557 18.0285 11.8999C16.8859 12.3695 15.891 12.9923 15.0416 13.7683L13.7635 20.0325L11.9231 19.3089C11.7616 20.0688 11.6798 20.8548 11.6798 21.6691C11.6798 23.346 11.963 24.8374 12.5312 26.1475C13.0995 27.4556 13.8691 28.5742 14.8442 29.5013C15.8192 30.4284 16.9537 31.1339 18.2478 31.6196C19.5418 32.1053 20.9176 32.3472 22.3732 32.3472C24.3512 32.3472 26.1916 31.9058 27.8944 31.023C29.5972 30.1402 30.8833 28.8322 31.7566 27.0968L27.5674 25.0229C26.8695 26.1415 26.1058 26.9134 25.2764 27.3387C24.4469 27.766 23.5815 27.9776 22.6803 27.9776C21.4002 27.9776 20.3015 27.5301 19.3843 26.6312C18.4671 25.7343 17.9507 24.5794 17.835 23.1686H32.8493V22.3765H32.8453ZM17.8749 19.5528C18.0783 18.3173 18.5728 17.3458 19.3584 16.6404C20.144 15.9349 21.133 15.5822 22.3254 15.5822C23.3442 15.5822 24.2595 15.8906 25.075 16.5094C25.8905 17.1261 26.4129 18.1419 26.6462 19.5528H17.8749Z" fill="#0052CC"/>
<path d="M11.6254 16.8188C11.0871 16.7019 10.6145 16.6414 10.2078 16.6414C8.86984 16.6414 7.90079 17.111 7.30461 18.0523C6.70843 18.9935 6.40934 20.2149 6.40934 21.7144V31.8605H0.256104V11.5684H6.01654L6.14814 14.0837H6.23587C7.05138 13.0538 7.91674 12.296 8.83395 11.8123C9.75115 11.3265 10.6743 11.0847 11.6055 11.0847C12.1299 11.0847 12.6164 11.1431 13.067 11.262C13.5177 11.3789 13.9464 11.5422 14.3551 11.7478L13.2206 17.3065C12.6942 17.0969 12.1638 16.9357 11.6254 16.8188Z" fill="#0052CC"/>
</svg>
